<?xml version="1.0" encoding="UTF-8" standalone="no"?>
<!-- Created with Inkscape (http://www.inkscape.org/) -->

<svg
   width="169.217mm"
   height="182.52499mm"
   viewBox="0 0 169.217 182.52499"
   version="1.1"
   id="svg1"
   xml:space="preserve"
   inkscape:version="1.3 (0e150ed6c4, 2023-07-21)"
   sodipodi:docname="logo_white.svg"
   xmlns:inkscape="http://www.inkscape.org/namespaces/inkscape"
   xmlns:sodipodi="http://sodipodi.sourceforge.net/DTD/sodipodi-0.dtd"
   xmlns="http://www.w3.org/2000/svg"
   xmlns:svg="http://www.w3.org/2000/svg"><sodipodi:namedview
     id="namedview1"
     pagecolor="#ffffff"
     bordercolor="#000000"
     borderopacity="0.25"
     inkscape:showpageshadow="2"
     inkscape:pageopacity="0.0"
     inkscape:pagecheckerboard="0"
     inkscape:deskcolor="#d1d1d1"
     inkscape:document-units="mm"
     inkscape:zoom="0.53228931"
     inkscape:cx="347.55535"
     inkscape:cy="391.70428"
     inkscape:window-width="1920"
     inkscape:window-height="935"
     inkscape:window-x="0"
     inkscape:window-y="32"
     inkscape:window-maximized="1"
     inkscape:current-layer="layer1" /><defs
     id="defs1" /><g
     inkscape:label="Layer 1"
     inkscape:groupmode="layer"
     id="layer1"><path
       style="fill:#ffffff;fill-opacity:1"
       d="m 41.899924,181.79064 c -0.60672,-0.60671 -0.7006,-1.02142 -0.53908,-2.38125 0.10757,-0.90563 0.76728,-9.50472 1.46603,-19.10909 0.69874,-9.60438 1.33155,-17.78112 1.40623,-18.17055 0.0985,-0.51348 1.085,-1.1201 3.59016,-2.20759 1.8999,-0.82476 3.62345,-1.49833 3.8301,-1.49682 0.20665,0.001 0.74872,1.0743 1.20459,2.38398 2.20368,6.33107 8.52316,23.6405 8.8868,24.34153 0.53736,1.03589 2.2819,1.49504 5.68966,1.49748 l 2.75123,0.002 -0.0563,7.25528 c -0.031,3.99041 -0.13661,7.56228 -0.23473,7.9375 -0.17246,0.65949 -0.62951,0.68222 -13.71921,0.68222 -13.24922,0 -13.55662,-0.0158 -14.27545,-0.73466 z m 30.46453,-7.11465 c 0.0439,-4.31712 0.18339,-7.92868 0.30995,-8.02569 0.12655,-0.097 4.65093,-0.13146 10.054176,-0.0765 l 9.82406,0.0999 0.0799,7.92585 0.0799,7.92585 H 82.4985 72.284614 Z m 22.709836,5.99722 c -0.12235,-1.01864 -0.22384,-4.59052 -0.22552,-7.9375 l -0.003,-6.08541 2.73403,-0.002 c 3.79776,-0.003 5.17842,-0.44208 5.83385,-1.85643 0.52527,-1.13348 8.2608,-22.51337 9.06013,-25.04091 0.23011,-0.7276 0.6045,-1.32415 0.83199,-1.32565 0.22748,-0.002 1.96808,0.67206 3.86798,1.49682 2.50275,1.08644 3.49216,1.6946 3.59152,2.20759 0.0754,0.38943 0.70683,8.56617 1.4031,18.17055 0.69628,9.60437 1.35538,18.20346 1.46467,19.10909 0.16438,1.36214 0.0718,1.77351 -0.53595,2.38125 -0.71882,0.71882 -1.02634,0.73466 -14.26746,0.73466 H 95.29683 Z M 63.620954,163.3871 c -4.21002,-11.73905 -6.22064,-17.2944 -7.7775,-21.48924 -1.05599,-2.84531 -1.91999,-5.32144 -1.91999,-5.50252 0,-0.18108 1.96034,-4.36185 4.3563,-9.29061 2.39596,-4.92876 5.83038,-12.03512 7.63204,-15.79192 l 3.27575,-6.83054 -0.22162,-2.16529 c -0.33915,-3.313616 -3.22121,-14.660466 -3.89489,-15.334446 -0.52834,-0.52857 -2.30478,-0.60732 -17.26935,-0.76557 l -16.68042,-0.17639 3.52076,-8.64305 3.52076,-8.64306 9.42398,-0.11022 9.42398,-0.11021 12.21469,6.96681 12.214696,6.96681 v 26.921876 26.92188 l -4.850696,0.0127 c -5.6495,0.0148 -5.41971,-0.0961 -8.71462,4.20675 -2.39815,3.13181 -2.39749,3.16293 0.16188,7.62089 2.89297,5.03904 2.65204,4.89595 8.47155,5.03148 l 4.931886,0.11486 v 5.265 5.265 h -8.830526 c -6.74488,0 -8.86786,-0.10415 -8.98866,-0.44097 z m 20.288636,-4.8172 v -5.27049 l 4.75549,-0.11553 c 4.53284,-0.11012 4.79598,-0.15682 5.62032,-0.99747 1.0145,-1.03458 4.34616,-6.73183 4.65406,-7.95858 0.24037,-0.95772 -1.94787,-4.31017 -4.31259,-6.60702 l -1.3481,-1.3094 H 88.59418 83.90959 V 109.13879 81.966164 l 0.85607,-0.32547 c 0.47083,-0.17901 5.86537,-3.19133 11.98786,-6.69405 l 11.13179,-6.36857 4.32811,0.043 c 2.38046,0.0237 6.53011,0.14274 9.22143,0.26459 l 4.89332,0.22154 3.30342,8.29028 c 1.81688,4.55965 3.30583,8.40934 3.30877,8.55486 0.003,0.14552 -7.2002,0.26458 -16.00697,0.26458 -14.87103,0 -16.06798,0.0451 -16.79352,0.63259 -0.61075,0.49456 -1.12008,2.01483 -2.33423,6.96736 -0.85415,3.48413 -1.65291,7.311056 -1.77502,8.504296 l -0.22201,2.16953 3.45182,7.17908 c 1.8985,3.9485 5.33309,11.05307 7.63243,15.78795 2.29934,4.73487 4.18062,8.7569 4.18062,8.93783 0,0.18094 -0.86466,2.65695 -1.92145,5.50226 -1.0568,2.8453 -3.2629,8.90389 -4.90245,13.46355 l -2.98099,8.29027 -8.6795,0.0944 -8.6795,0.0944 z m -13.525626,-11.1935 -2.06034,-3.33279 1.96683,-2.61316 1.96683,-2.61317 10.232836,0.004 10.23284,0.004 1.96997,2.61748 1.96997,2.61748 -2.05513,3.32443 -2.05513,3.32443 H 82.49848 72.444304 Z m -26.9818,-10.29343 c -0.40173,-0.93384 -1.31289,-2.9579 -2.02481,-4.49792 -0.71191,-1.54002 -2.84592,-6.29253 -4.74223,-10.56114 -1.89632,-4.26862 -3.84566,-8.63424 -4.33188,-9.70139 -3.59738,-7.89554 -3.3734,-6.36098 -2.36529,-16.205716 0.3862,-3.77141 0.70218,-6.9861 0.70218,-7.14375 0,-0.15766 2.77812,-0.28664 6.17361,-0.28664 h 6.17361 v 7.57231 c 0,7.125456 0.0403,7.593856 0.68236,7.937496 0.42837,0.22925 4.76178,0.36519 11.64167,0.36519 6.02762,0 10.95931,0.0547 10.95931,0.12145 0,0.0668 -1.60619,3.44023 -3.5693,7.49653 -5.29526,10.94136 -8.32414,17.27012 -9.76233,20.39817 l -1.28394,2.79254 -3.64291,1.70537 c -2.00359,0.93796 -3.69617,1.70538 -3.76127,1.70538 -0.0651,0 -0.44706,-0.76405 -0.84878,-1.69788 z m 73.668536,0.0978 -3.35139,-1.49478 -1.2388,-2.42129 c -0.68134,-1.33172 -2.33671,-4.72317 -3.6786,-7.53658 -1.3419,-2.8134 -4.15787,-8.66564 -6.25773,-13.00497 -2.09986,-4.33933 -3.81792,-7.95089 -3.81792,-8.02569 0,-0.0748 4.93168,-0.136 10.9593,-0.136 6.87989,0 11.2133,-0.13594 11.64167,-0.36519 0.64209,-0.34364 0.68236,-0.81204 0.68236,-7.937496 v -7.57231 h 5.9764 c 3.28702,0 6.06693,0.14647 6.17757,0.32549 0.23008,0.37228 1.59587,13.330656 1.60098,15.189896 0.003,1.066 -5.46116,13.84926 -11.91548,27.87627 -0.66959,1.45521 -1.5778,3.45895 -2.01824,4.45276 -0.44044,0.99381 -0.93758,1.88291 -1.10476,1.97579 -0.16719,0.0929 -1.8121,-0.50377 -3.65536,-1.3259 z M 45.456804,95.389184 v -6.70277 h 8.97206 c 8.24194,0 8.98652,0.0502 9.14975,0.61736 0.2776,0.96444 3.04485,12.435696 3.04485,12.621986 0,0.0914 -4.7625,0.1662 -10.58333,0.1662 h -10.58333 z m 52.916676,6.544956 c 0,-0.0868 0.63283,-2.745856 1.40628,-5.909016 0.77346,-3.16317 1.49086,-6.1084 1.59423,-6.54496 l 0.18793,-0.79375 h 8.98911 8.98911 v 6.70277 6.702776 h -10.58333 c -5.82083,0 -10.58333,-0.071 -10.58333,-0.15782 z m 38.73439,-12.944146 c -1.1466,-2.27887 -3.45661,-7.95092 -3.45661,-8.48742 0,-0.21074 2.10343,-2.41153 4.6743,-4.89064 3.54589,-3.41934 4.7721,-4.4079 5.07941,-4.09497 0.68852,0.70109 5.41614,7.60332 5.40881,7.89674 -0.004,0.15228 -2.42474,2.79546 -5.37986,5.87373 l -5.37294,5.59686 z M 11.147644,76.210824 C 5.5685141,68.770614 0.76384409,62.202234 0.47060409,61.614414 c -0.46538,-0.93287 -0.52125,-4.86962 -0.43946,-30.964433 l 0.0937,-29.89568801 0.74646,-0.495566 C 1.5528341,-0.19373501 1.7522841,-0.12545901 3.1643541,1.0437 c 0.85063,0.704297 2.73723,2.418371 4.19244,3.809054 1.4552,1.390683 4.7095799,4.41646 7.2319399,6.723948 2.52236,2.307487 5.61799,5.170919 6.87917,6.363182 1.26118,1.192262 6.8968,6.426615 12.52361,11.631895 5.6268,5.20528 10.74768,9.9634 11.37971,10.5736 l 1.14917,1.109453 -2.17327,5.459537 c -1.1953,3.002745 -2.27507,5.577695 -2.3995,5.722105 -0.12443,0.14441 -1.72734,-0.97675 -3.56201,-2.49146 -6.84218,-5.648905 -22.42532,-18.308987 -23.50683,-19.097447 -2.20465,-1.607264 -2.19673,-1.646562 -2.22028,11.022254 -0.0172,9.246923 0.0768,11.660573 0.49298,12.656563 0.56412,1.35012 3.34152,5.27825 11.28016,15.95371 2.87006,3.85952 5.52432,7.56216 5.89836,8.22809 l 0.68006,1.21079 -1.50789,3.76636 -1.50788,3.76635 -2.99861,1.13286 c -1.64924,0.62307 -3.15737,1.1376 -3.35139,1.14339 -0.19403,0.006 -4.91753,-6.0769 -10.49666,-13.51711 z m 138.718256,0.0236 c -2.98418,-4.308 -7.11306,-10.21399 -9.17528,-13.1244 l -3.74948,-5.29167 -0.43408,-3.35139 c -0.68987,-5.326265 -1.46632,-9.676015 -1.78522,-10.001005 -0.1617,-0.1648 -0.62749,-0.19379 -1.03507,-0.0644 -0.62965,0.19984 -0.74107,0.51528 -0.74107,2.09799 v 1.86279 l -4.99231,2.363905 c -2.74577,1.30015 -5.11365,2.23713 -5.26195,2.08219 -0.35485,-0.37074 -4.20963,-10.017096 -4.20963,-10.53434 0,-0.21997 0.67469,-0.693494 1.49931,-1.052276 0.82461,-0.358783 4.51555,-2.069408 8.20208,-3.801388 3.68653,-1.731981 7.51728,-3.515916 8.51278,-3.964301 l 1.81001,-0.815244 1.54138,0.802637 c 0.84776,0.44145 3.36701,1.757761 5.59833,2.925135 2.23132,1.167374 6.51757,3.4085 9.525,4.980282 12.6738,6.62375 13.93254,7.34688 14.03995,8.065835 0.10153,0.67963 -0.88779,3.20218 -9.40626,23.98397 -2.16047,5.27072 -3.92813,9.74604 -3.92813,9.94515 0,1.25998 -1.17823,-0.1337 -6.01036,-7.10944 z m -69.67018,2.79442 c -0.62873,-0.43853 -4.886796,-2.93441 -17.755336,-10.40738 l -4.35948,-2.53161 -9.17161,0.0308 c -5.04439,0.017 -9.25352,-0.0511 -9.35363,-0.15117 -0.10011,-0.10011 1.86989,-5.30882 4.37779,-11.57493 l 4.55982,-11.3929 16.47343,-0.09168 16.473436,-0.09168 v 18.34796 c 0,10.09136 -0.12342,18.34793 -0.27428,18.34793 -0.15085,0 -0.58742,-0.2184 -0.97014,-0.48534 z m 3.71387,-18.03549 V 42.825305 h 15.85418 c 12.26505,0 15.91879,0.09947 16.13958,0.439394 0.15697,0.24167 2.29323,5.44073 4.74724,11.553465 l 4.46183,11.11408 -9.12601,0.094 -9.12601,0.094 -7.68305,4.45997 c -12.49236,7.25176 -14.82415,8.58114 -15.05174,8.58114 -0.11881,0 -0.21602,-8.17563 -0.21602,-18.16806 z m 48.24147,15.83805 c -0.88981,-1.77167 -8.49722,-21.30531 -8.34575,-21.42949 0.66999,-0.5493 9.52063,-4.35092 9.64835,-4.14427 0.0912,0.14763 0.35029,1.76355 0.57568,3.59095 l 0.40979,3.32254 3.48662,5.17568 c 1.91764,2.84662 3.48662,5.25014 3.48662,5.34114 0,0.091 -1.96838,2.19033 -4.37416,4.66516 l -4.37417,4.49968 z M 24.361234,66.183064 c -4.1325,-5.57073 -7.90536,-10.62146 -8.38415,-11.22385 l -0.87051,-1.09526 0.0939,-9.780895 0.0939,-9.780913 12.77883,10.451443 12.77884,10.451435 -0.59059,1.48305 c -5.69356,14.29748 -7.83075,19.46345 -8.08206,19.53586 -0.16746,0.0482 -3.6856,-4.47014 -7.81809,-10.04087 z"
       id="path1"
       sodipodi:nodetypes="ssssscsssccssssssscccccsccccsscssssssccssssscssscccccccccsssscccsssccsssscccccssccscscsssscssssscccccccccccccccccssssssscsssssscsssscssssssscsscssssccssssccssscccccsssssscscsssscssssssscsssssssscccscssscsscscsssssscssssssssssccsscccsssccssscccssccsssscssscssscccccscss" /></g></svg>
