<svg xmlns="http://www.w3.org/2000/svg" width="2388" height="1668" viewBox="0 0 2388 1668" version="1.1"><path d="M 1878.492 664.032 C 1866.629 668.597, 1858.647 682.591, 1861.176 694.385 C 1861.772 697.163, 1863.169 701.181, 1864.281 703.314 C 1866.839 708.222, 1874.861 714.615, 1880.312 716.089 C 1885.649 717.532, 1897.573 716.709, 1901.590 714.620 C 1906.504 712.065, 1911.599 706.528, 1914.072 701.055 L 1916.357 696 2010.695 696 L 2105.033 696 2112.594 703.750 C 2116.753 708.013, 2125.633 717.310, 2132.328 724.411 C 2139.023 731.512, 2146.075 738.969, 2148 740.981 C 2149.925 742.993, 2152.850 746.110, 2154.500 747.908 L 2157.500 751.176 2127.776 750.840 C 2098.468 750.508, 2098.022 750.533, 2095.901 752.654 C 2093.151 755.405, 2093.151 759.595, 2095.901 762.347 C 2097.897 764.345, 2099.431 764.550, 2117.276 765.203 C 2127.849 765.590, 2163.530 766.300, 2196.567 766.781 C 2229.604 767.262, 2257.167 767.985, 2257.817 768.387 C 2258.599 768.870, 2259 772.487, 2259 779.059 L 2259 789 2227.950 789 C 2202.141 789, 2196.405 789.256, 2193.965 790.518 C 2190.753 792.179, 2189.425 795.574, 2190.427 799.566 C 2191.647 804.424, 2194.603 804.767, 2226.206 803.711 C 2241.994 803.184, 2255.607 803.019, 2256.456 803.345 C 2257.764 803.847, 2258 806.526, 2258 820.855 L 2258 837.772 2254.250 839.505 C 2246.075 843.284, 2240.040 851.129, 2238.099 860.500 C 2236.691 867.296, 2237.615 873.364, 2241.093 880.183 C 2242.219 882.389, 2242.996 884.309, 2242.820 884.449 C 2242.443 884.751, 2215.317 898.768, 2188.500 912.519 C 2178.050 917.878, 2163.650 925.293, 2156.500 928.997 C 2149.350 932.701, 2139 938.013, 2133.500 940.802 L 2123.500 945.872 2091.308 946.186 L 2059.117 946.500 2058.808 913 C 2058.579 888.109, 2058.171 878.925, 2057.221 877.262 C 2055.742 874.673, 2052.115 873.503, 2048.434 874.427 C 2043.601 875.640, 2043.276 878.475, 2043.957 913.500 C 2044.299 931.100, 2044.422 945.837, 2044.230 946.250 C 2044.039 946.663, 2023.974 947, 1999.642 947 L 1955.402 947 1954.202 943.681 C 1952.494 938.958, 1946.614 932.446, 1941.166 929.243 C 1937.006 926.797, 1935.518 926.500, 1927.436 926.500 C 1919.774 926.500, 1917.632 926.880, 1913.588 928.957 C 1895.591 938.203, 1892.574 964.819, 1908.129 977.126 C 1915.284 982.787, 1917.449 983.501, 1927.401 983.484 C 1936.971 983.467, 1940.820 982.118, 1946.891 976.652 C 1950.059 973.801, 1955 966.043, 1955 963.921 C 1955 962.380, 1958.243 962.173, 1992.250 961.533 C 2012.737 961.148, 2032.875 960.983, 2037 961.166 L 2044.500 961.500 2044.765 990.750 L 2045.030 1020 1971.173 1020 L 1897.317 1020 1896.157 1016.128 C 1893.503 1007.270, 1881.896 998.972, 1871.096 998.211 C 1860.725 997.481, 1848.105 1004.419, 1843.895 1013.165 C 1839.403 1022.496, 1838.933 1029.022, 1842.127 1037.712 C 1847.379 1052.001, 1864.120 1060.397, 1877.760 1055.585 C 1886.950 1052.342, 1895.362 1044.421, 1896.699 1037.750 L 1897.250 1035 1916.375 1034.999 C 1926.894 1034.998, 1960.104 1034.700, 1990.175 1034.336 L 2044.851 1033.674 2045.175 1048.735 C 2045.549 1066.090, 2046.328 1068, 2053.033 1068 C 2058.980 1068, 2059.456 1066.697, 2059.840 1049.349 L 2060.179 1034 2160.590 1034 L 2261 1034 2260.995 1052.750 C 2260.992 1063.063, 2260.699 1075.888, 2260.344 1081.250 L 2259.698 1091 2202.460 1091 C 2148.324 1091, 2145.098 1091.100, 2142.944 1092.844 C 2140.072 1095.170, 2139.894 1100.338, 2142.593 1103.038 C 2144.434 1104.879, 2147.072 1104.995, 2201.760 1105.645 L 2259 1106.326 2259 1133.658 L 2259 1160.990 2254.607 1163.055 C 2248.732 1165.816, 2243.278 1171.401, 2240.500 1177.500 C 2237.129 1184.903, 2236.756 1187.965, 2238.440 1194.432 C 2242.345 1209.422, 2252.166 1217.444, 2266.612 1217.444 C 2277.680 1217.444, 2286.651 1212.207, 2291.733 1202.777 L 2293.500 1199.500 2339.500 1199.500 C 2364.800 1199.500, 2386.063 1199.864, 2386.750 1200.309 C 2387.714 1200.933, 2388 1199.244, 2388 1192.923 L 2388 1184.728 2366.250 1185.049 C 2354.287 1185.225, 2333.363 1185.286, 2319.750 1185.184 C 2298.419 1185.025, 2295 1184.791, 2295 1183.489 C 2295 1180.657, 2290.876 1173.195, 2287.140 1169.268 C 2285.090 1167.113, 2281.068 1164.290, 2278.203 1162.995 L 2272.993 1160.640 2273.580 1134.570 C 2273.903 1120.232, 2274.341 1107.938, 2274.552 1107.250 C 2274.849 1106.286, 2281.867 1106, 2305.219 1105.998 C 2321.873 1105.997, 2347.313 1105.700, 2361.750 1105.337 L 2388 1104.679 2388 1098.501 L 2388 1092.323 2357.250 1091.663 C 2340.338 1091.300, 2314.902 1091.003, 2300.726 1091.002 L 2274.952 1091 2275.226 1058.529 L 2275.500 1026.058 2272.231 1022.779 L 2268.961 1019.500 2164.731 1019.500 L 2060.500 1019.500 2059.878 990.500 C 2059.536 974.550, 2059.328 961.408, 2059.415 961.296 C 2059.503 961.184, 2133.470 961.023, 2223.787 960.938 L 2388 960.782 2388 953.502 L 2388 946.222 2272.799 946.076 C 2209.438 945.996, 2157.473 945.806, 2157.320 945.653 C 2156.997 945.331, 2175.530 935.694, 2235 905.260 L 2256.500 894.257 2264.667 894.752 C 2272.322 895.216, 2273.245 895.047, 2279.388 892.055 C 2287.013 888.340, 2291.244 883.581, 2294.069 875.544 C 2296.577 868.409, 2296.511 862.514, 2293.847 855.552 C 2291.170 848.555, 2285.462 842.559, 2278.405 839.328 L 2273 836.853 2273 819.927 L 2273 803 2308.250 802.750 C 2327.637 802.612, 2353.512 802.556, 2365.750 802.625 L 2388 802.751 2388 796.022 L 2388 789.293 2380.250 788.439 C 2371.380 787.462, 2369.902 787.456, 2314.250 788.173 L 2273 788.704 2273 778.264 L 2273 767.824 2300.750 768.534 C 2316.012 768.925, 2341.888 769.302, 2358.250 769.372 L 2388 769.500 2388 761.931 L 2388 754.362 2332.490 754.245 C 2301.959 754.181, 2276.084 753.844, 2274.990 753.497 C 2273.068 752.887, 2273 751.941, 2273 725.918 L 2273 698.971 2269.753 696.996 C 2266.329 694.914, 2263.753 695.136, 2260.750 697.773 C 2259.165 699.165, 2259 701.840, 2259 726.155 L 2259 753 2247.750 753.019 C 2241.563 753.030, 2223.321 752.497, 2207.214 751.834 L 2177.927 750.630 2167.714 740.010 C 2149.087 720.642, 2122.379 692.577, 2117.505 687.250 L 2112.702 682 2014.356 682 L 1916.010 682 1913.885 677.480 C 1907.946 664.843, 1892.063 658.809, 1878.492 664.032 M 1884.382 677.531 C 1879.522 679.662, 1876 684.490, 1876 689.020 C 1876 694.044, 1879.220 699.402, 1883.445 701.407 C 1887.669 703.411, 1890.073 703.414, 1894.216 701.418 C 1899.174 699.029, 1901.231 695.624, 1901.231 689.802 C 1901.231 683.936, 1899.052 680.363, 1893.912 677.798 C 1889.842 675.768, 1888.488 675.730, 1884.382 677.531 M 2261.662 852.417 C 2256.498 854.701, 2253.164 858.724, 2252.441 863.545 C 2251.588 869.232, 2253.172 873.172, 2257.866 877.041 C 2260.846 879.498, 2262.358 880, 2266.767 880 C 2271.561 880, 2272.485 879.620, 2276.272 876.087 C 2280.279 872.349, 2280.466 871.914, 2280.448 866.337 C 2280.424 859.242, 2278.370 855.709, 2272.666 852.953 C 2268.079 850.737, 2265.723 850.622, 2261.662 852.417 M 1315.500 881.330 C 1306.052 885.745, 1299.986 895.106, 1300.024 905.210 C 1300.072 917.828, 1303.277 924.236, 1312.444 930.042 L 1317.904 933.500 1318.023 957 C 1318.089 969.925, 1318.524 1005.475, 1318.991 1036 L 1319.839 1091.500 1316.184 1099 C 1314.173 1103.125, 1312.172 1106.950, 1311.737 1107.500 C 1310.607 1108.929, 1288.575 1146.456, 1283.251 1156.021 C 1280.562 1160.852, 1268.525 1181.134, 1263.841 1188.725 C 1261.728 1192.150, 1260 1195.144, 1260 1195.380 C 1260 1195.616, 1255.950 1202.645, 1251 1211 C 1246.050 1219.355, 1242 1226.292, 1242 1226.415 C 1242 1227.800, 1228.335 1249.410, 1225.720 1252.160 L 1222.240 1255.821 1221.640 1306.160 C 1221.126 1349.199, 1220.132 1468.839, 1219.955 1509 L 1219.899 1521.500 1216.950 1518 C 1215.328 1516.075, 1207.146 1505.275, 1198.768 1494 C 1190.391 1482.725, 1183.165 1473.050, 1182.712 1472.500 C 1182.259 1471.950, 1174.019 1460.925, 1164.401 1448 C 1154.782 1435.075, 1146.370 1423.816, 1145.706 1422.980 C 1145.043 1422.144, 1143.174 1419.696, 1141.554 1417.540 L 1138.608 1413.619 1137.879 1320.560 C 1137.478 1269.377, 1137.116 1196.626, 1137.075 1158.890 L 1137 1090.281 1142.729 1086.890 C 1147.532 1084.048, 1148.988 1082.475, 1151.729 1077.163 C 1157.004 1066.943, 1156.049 1057.745, 1148.866 1049.586 C 1142.974 1042.892, 1138.081 1040.624, 1129.500 1040.610 C 1123.525 1040.600, 1121.854 1041.011, 1118.090 1043.413 C 1108.631 1049.449, 1104.886 1055.799, 1104.879 1065.810 C 1104.873 1074.426, 1108.552 1081.075, 1116.169 1086.217 L 1121.676 1089.934 1122.348 1173.717 C 1122.718 1219.798, 1123.031 1293.143, 1123.043 1336.706 C 1123.062 1403.406, 1123.293 1416.458, 1124.508 1419.365 C 1125.301 1421.263, 1126.314 1422.970, 1126.759 1423.158 C 1127.203 1423.346, 1132.937 1430.700, 1139.500 1439.500 C 1146.063 1448.300, 1151.812 1455.950, 1152.277 1456.500 C 1152.741 1457.050, 1160.981 1468.075, 1170.588 1481 C 1180.195 1493.925, 1188.606 1505.175, 1189.281 1506 C 1189.955 1506.825, 1194.301 1512.675, 1198.938 1519 C 1203.575 1525.325, 1207.635 1530.725, 1207.960 1531 C 1208.285 1531.275, 1210.902 1534.705, 1213.775 1538.622 L 1219 1545.745 1219 1559.087 C 1219 1570.795, 1218.821 1572.249, 1217.537 1570.964 C 1216.073 1569.498, 1204.060 1553.836, 1190.725 1536.007 C 1186.820 1530.785, 1183.262 1526.060, 1182.818 1525.507 C 1177.605 1518.998, 1168.399 1506.994, 1164.025 1501 C 1161.014 1496.875, 1158.314 1493.275, 1158.025 1493 C 1157.480 1492.481, 1156.737 1491.508, 1135.513 1463.500 C 1128.428 1454.150, 1118.551 1441.164, 1113.565 1434.641 C 1108.579 1428.119, 1103.263 1420.941, 1101.750 1418.690 L 1099 1414.598 1099 1295.515 L 1099 1176.431 1102.250 1174.594 C 1118.823 1165.225, 1119.116 1141.368, 1102.766 1132.469 C 1096.057 1128.817, 1086.717 1128.804, 1080.518 1132.437 C 1064.556 1141.791, 1063.635 1162.895, 1078.750 1172.935 L 1084 1176.422 1084.224 1289.961 C 1084.348 1352.408, 1084.460 1407.550, 1084.474 1412.500 L 1084.500 1421.500 1090.584 1429 C 1093.931 1433.125, 1101.566 1443.025, 1107.551 1451 C 1113.536 1458.975, 1118.682 1465.725, 1118.986 1466 C 1119.290 1466.275, 1123.779 1472.125, 1128.962 1479 C 1158.782 1518.558, 1169.101 1532.126, 1170.033 1533 C 1170.326 1533.275, 1172.349 1535.975, 1174.528 1539 C 1176.707 1542.025, 1181.787 1548.775, 1185.816 1554 C 1199.635 1571.917, 1212.829 1589.260, 1216.141 1593.859 L 1218.781 1597.526 1219.523 1632.763 L 1220.266 1668 1227.043 1668 L 1233.820 1668 1233.660 1649.750 C 1233.572 1639.713, 1233.882 1590.100, 1234.350 1539.500 C 1235.006 1468.427, 1235.489 1446.931, 1236.471 1445 C 1237.895 1442.202, 1239.878 1438.627, 1249.232 1422 C 1252.790 1415.675, 1257.300 1407.575, 1259.254 1404 C 1261.208 1400.425, 1266.808 1390.300, 1271.699 1381.500 L 1280.592 1365.500 1346.672 1365.243 L 1412.751 1364.986 1414.021 1368.051 C 1416.004 1372.838, 1423.513 1379.888, 1429.594 1382.672 C 1434.336 1384.842, 1436.232 1385.153, 1442.815 1384.837 C 1460.036 1384.011, 1472 1371.878, 1472 1355.240 C 1472 1339.502, 1463.636 1328.933, 1448.025 1324.945 C 1434.717 1321.545, 1418.288 1330.504, 1413.386 1343.833 C 1412.442 1346.400, 1411.406 1348.790, 1411.085 1349.144 C 1410.763 1349.498, 1383.101 1350.111, 1349.614 1350.506 L 1288.728 1351.225 1291.688 1345.863 C 1293.316 1342.913, 1295.926 1338.250, 1297.489 1335.500 C 1300.554 1330.104, 1301.879 1327.736, 1307 1318.500 C 1308.830 1315.200, 1311.080 1311.150, 1312 1309.500 C 1312.920 1307.850, 1315.170 1303.800, 1317 1300.500 C 1318.830 1297.200, 1321.080 1293.150, 1322 1291.500 C 1322.920 1289.850, 1325.170 1285.800, 1327 1282.500 C 1328.830 1279.200, 1331.080 1275.150, 1332 1273.500 C 1332.920 1271.850, 1335.170 1267.800, 1337 1264.500 C 1341.298 1256.747, 1343.314 1253.150, 1348.482 1244 C 1350.813 1239.875, 1354.307 1233.575, 1356.247 1230 C 1358.188 1226.425, 1362.683 1218.325, 1366.238 1212 C 1369.793 1205.675, 1374.418 1197.350, 1376.517 1193.500 C 1378.616 1189.650, 1381.335 1184.700, 1382.558 1182.500 C 1383.781 1180.300, 1387.279 1173.990, 1390.330 1168.479 L 1395.878 1158.458 1396.402 1112.246 C 1396.690 1086.829, 1397.228 1062.034, 1397.597 1057.145 L 1398.268 1048.257 1404.280 1047.628 C 1407.588 1047.283, 1439.006 1047, 1474.100 1047 L 1537.907 1047 1554.203 1056.348 C 1563.166 1061.489, 1574.775 1068.163, 1580 1071.179 C 1585.225 1074.196, 1591.525 1077.815, 1594 1079.222 C 1596.475 1080.629, 1608.400 1087.495, 1620.500 1094.480 C 1632.600 1101.466, 1644.975 1108.561, 1648 1110.248 C 1656.242 1114.844, 1661.413 1118.169, 1662.235 1119.399 C 1662.639 1120.005, 1662.969 1132.875, 1662.969 1148 C 1662.969 1163.125, 1662.639 1175.950, 1662.235 1176.500 C 1661.831 1177.050, 1659.734 1178.400, 1657.576 1179.500 C 1646.451 1185.170, 1642.558 1201.683, 1649.848 1212.279 C 1654.668 1219.285, 1660.633 1222.371, 1669.494 1222.442 C 1676.119 1222.496, 1677.072 1222.224, 1682.204 1218.822 C 1695.214 1210.197, 1696.284 1192.969, 1684.485 1182.093 C 1682.043 1179.842, 1679.585 1178, 1679.022 1178 C 1678.348 1178, 1678 1167.601, 1678 1147.468 C 1678 1114.654, 1677.772 1112.944, 1672.731 1108 C 1671.330 1106.625, 1668.454 1104.616, 1666.341 1103.536 C 1664.229 1102.455, 1660.250 1100.177, 1657.500 1098.472 C 1654.750 1096.767, 1651.150 1094.676, 1649.500 1093.824 C 1647.850 1092.973, 1641.381 1089.290, 1635.124 1085.639 C 1628.867 1081.987, 1623.625 1079, 1623.475 1079 C 1623.325 1079, 1617.420 1075.576, 1610.351 1071.392 C 1603.283 1067.207, 1595.025 1062.409, 1592 1060.728 C 1583.031 1055.746, 1580.801 1054.461, 1574.500 1050.642 L 1568.500 1047.005 1577.082 1047.003 L 1585.665 1047 1597.082 1053.128 C 1603.362 1056.499, 1611.578 1060.999, 1615.340 1063.128 C 1619.101 1065.258, 1622.373 1067, 1622.609 1067 C 1622.846 1067, 1624.718 1068.046, 1626.770 1069.325 C 1628.821 1070.604, 1633.875 1073.471, 1638 1075.697 C 1642.125 1077.922, 1647.089 1080.638, 1649.031 1081.731 C 1650.972 1082.825, 1656.147 1085.635, 1660.531 1087.976 C 1664.914 1090.317, 1669.850 1093.020, 1671.500 1093.982 C 1674.632 1095.809, 1683.267 1100.556, 1696 1107.452 L 1703.500 1111.514 1703.490 1134.257 C 1703.484 1146.766, 1703.371 1177.688, 1703.240 1202.974 L 1703 1248.949 1700.047 1250.476 C 1694.416 1253.388, 1690.300 1258.712, 1688.479 1265.441 C 1686.855 1271.439, 1686.857 1272.058, 1688.508 1277.137 C 1691.740 1287.080, 1697.333 1292.390, 1706.322 1294.052 C 1716.368 1295.909, 1725.977 1291.937, 1731.323 1283.717 C 1734.500 1278.833, 1735.427 1272.373, 1733.963 1265.324 C 1733.003 1260.697, 1731.944 1258.849, 1727.987 1254.892 C 1725.342 1252.247, 1721.941 1249.772, 1720.430 1249.393 L 1717.681 1248.703 1718.381 1201.102 C 1718.766 1174.921, 1719.486 1142.957, 1719.980 1130.071 C 1720.530 1115.724, 1720.519 1105.970, 1719.951 1104.908 C 1719.441 1103.955, 1715.080 1101.032, 1710.262 1098.414 C 1705.443 1095.796, 1700.051 1092.847, 1698.281 1091.861 C 1695.226 1090.160, 1690.719 1087.712, 1675.250 1079.352 C 1671.537 1077.345, 1667.600 1075.151, 1666.500 1074.474 C 1665.400 1073.798, 1662.025 1071.912, 1659 1070.283 C 1655.975 1068.654, 1651.025 1065.921, 1648 1064.209 C 1642.791 1061.262, 1638.930 1059.153, 1622.500 1050.280 L 1615.500 1046.500 1660.500 1045.725 C 1685.250 1045.299, 1706.966 1044.716, 1708.758 1044.429 C 1713.011 1043.747, 1715.419 1040.183, 1714.489 1035.948 C 1713.212 1030.138, 1710.847 1029.802, 1675.633 1030.435 C 1640.171 1031.073, 1584.037 1031.689, 1474.087 1032.648 L 1397.675 1033.315 1398.334 1018.907 C 1398.696 1010.983, 1398.994 1001.913, 1398.996 998.750 C 1398.999 994.572, 1399.372 993, 1400.359 993 C 1402.848 993, 1410.731 985.105, 1412.945 980.394 C 1418.837 967.858, 1411.679 952.916, 1397.669 948.509 C 1391.582 946.595, 1388.226 947.047, 1380.500 950.821 C 1367.647 957.101, 1364.990 976.855, 1375.586 987.343 C 1377.166 988.906, 1379.705 990.830, 1381.229 991.619 L 1384 993.051 1384 1013.026 L 1384 1033 1359.160 1033 L 1334.320 1033 1333.660 1008.838 C 1333.297 995.549, 1333 973.310, 1333 959.418 L 1333 934.159 1335.942 933.513 C 1339.293 932.777, 1346.412 927.915, 1349.750 924.083 C 1352.177 921.297, 1354.476 915.004, 1355.506 908.326 C 1356.904 899.263, 1349.752 886.494, 1340.643 881.793 C 1334.240 878.488, 1322.061 878.264, 1315.500 881.330 M 1321.401 894.428 C 1317.059 896.318, 1314 901.672, 1314 907.383 C 1314 911.263, 1314.536 912.589, 1317.250 915.420 C 1319.944 918.230, 1321.441 918.907, 1326 919.379 C 1332.562 920.057, 1335.528 918.823, 1338.720 914.088 C 1341.655 909.733, 1341.790 902.918, 1339.020 899.028 C 1335.189 893.648, 1327.689 891.690, 1321.401 894.428 M 1386.905 964.750 C 1383.321 969.215, 1382.893 970.892, 1384.530 974.058 C 1388.449 981.637, 1400 979.108, 1400 970.672 C 1400 964.866, 1390.325 960.491, 1386.905 964.750 M 1865.500 1013.718 C 1861.609 1014.663, 1857.076 1019.015, 1855.903 1022.930 C 1851.538 1037.499, 1868.886 1048.048, 1879.596 1037.337 C 1882.719 1034.214, 1883 1033.433, 1883 1027.871 C 1883 1020.805, 1880.971 1017.163, 1875.619 1014.623 C 1872.243 1013.021, 1869.410 1012.768, 1865.500 1013.718 M 1334.263 1071.638 C 1334.608 1085.994, 1334.450 1096.333, 1333.861 1097.906 C 1332.865 1100.569, 1328.658 1107.897, 1319.320 1123.239 C 1316.394 1128.046, 1314 1132.196, 1314 1132.462 C 1314 1132.728, 1312.023 1136.221, 1309.608 1140.223 C 1305.839 1146.467, 1295.650 1163.841, 1281.004 1189 C 1278.923 1192.575, 1272.558 1203.375, 1266.860 1213 C 1261.162 1222.625, 1256.313 1230.950, 1256.085 1231.500 C 1255.856 1232.050, 1254.047 1235.200, 1252.065 1238.500 C 1250.082 1241.800, 1247.569 1246.213, 1246.480 1248.307 C 1245.391 1250.400, 1242.700 1254.450, 1240.500 1257.307 L 1236.500 1262.500 1236.211 1306.750 L 1235.921 1351 1254.344 1351 C 1271.009 1351, 1272.820 1350.833, 1273.328 1349.250 C 1273.637 1348.287, 1275.338 1345.025, 1277.107 1342 C 1278.876 1338.975, 1281.399 1334.520, 1282.714 1332.100 C 1284.028 1329.679, 1286.267 1325.629, 1287.689 1323.100 C 1289.111 1320.570, 1295.028 1309.950, 1300.838 1299.500 C 1306.648 1289.050, 1311.761 1280.350, 1312.201 1280.167 C 1312.640 1279.983, 1313.002 1279.308, 1313.005 1278.667 C 1313.007 1278.025, 1315.965 1272.325, 1319.578 1266 C 1323.191 1259.675, 1327.472 1252.025, 1329.092 1249 C 1330.711 1245.975, 1333.366 1241.250, 1334.991 1238.500 C 1336.615 1235.750, 1338.872 1231.700, 1340.005 1229.500 C 1341.138 1227.300, 1342.875 1224.150, 1343.866 1222.500 C 1345.895 1219.123, 1349.807 1212.170, 1354.276 1204 C 1359.979 1193.574, 1361.709 1190.477, 1365.848 1183.281 C 1368.131 1179.310, 1370 1175.780, 1370 1175.435 C 1370 1175.091, 1370.834 1173.614, 1371.854 1172.154 C 1372.874 1170.694, 1375.609 1165.930, 1377.931 1161.566 C 1381.349 1155.144, 1381.966 1153.220, 1381.167 1151.467 C 1380.537 1150.084, 1380.497 1145.366, 1381.056 1138.401 C 1381.538 1132.405, 1381.977 1109.725, 1382.033 1088 L 1382.134 1048.500 1357.914 1048.232 L 1333.694 1047.964 1334.263 1071.638 M 1122.104 1058.535 C 1117.812 1063.423, 1117.893 1067.684, 1122.368 1072.429 C 1125.013 1075.233, 1126.506 1076, 1129.321 1076 C 1134.154 1076, 1137.246 1074.443, 1138.750 1071.253 C 1142.496 1063.306, 1137.783 1055, 1129.527 1055 C 1125.834 1055, 1124.757 1055.513, 1122.104 1058.535 M 2383.692 1057.642 C 2383.458 1057.875, 2365.612 1058.263, 2344.034 1058.504 C 2316.805 1058.808, 2303.774 1059.314, 2301.445 1060.156 C 2295.212 1062.410, 2294.517 1069.786, 2300.204 1073.321 C 2302.173 1074.545, 2306.054 1074.571, 2327.476 1073.506 C 2341.213 1072.823, 2357.638 1072.464, 2363.976 1072.708 C 2370.314 1072.952, 2378.313 1072.857, 2381.750 1072.497 L 2388 1071.841 2388 1065.037 C 2388 1059.142, 2387.741 1058.165, 2386.058 1057.725 C 2384.990 1057.446, 2383.925 1057.408, 2383.692 1057.642 M 2050.695 1114.111 C 2049.702 1114.689, 2048.444 1116.333, 2047.899 1117.765 C 2047.274 1119.410, 2046.934 1150.112, 2046.977 1201.184 L 2047.044 1282 2033.022 1282 L 2019 1282 2019 1242.520 L 2019 1203.041 2023.250 1200.914 C 2028.739 1198.168, 2034.612 1192.555, 2037.284 1187.500 C 2040.255 1181.881, 2040.392 1167.311, 2037.529 1161.500 C 2028.670 1143.522, 2004.963 1139.503, 1990.703 1153.561 C 1978.594 1165.499, 1979.282 1185.310, 1992.186 1196.247 C 1994.734 1198.407, 1998.546 1200.767, 2000.659 1201.493 L 2004.500 1202.814 2004.761 1242.296 L 2005.023 1281.778 1983.261 1282.381 C 1971.293 1282.713, 1953.080 1283.224, 1942.789 1283.517 L 1924.079 1284.050 1922.357 1281.275 C 1917.023 1272.676, 1911.438 1269.467, 1902 1269.574 C 1896.726 1269.634, 1894.689 1270.161, 1891.200 1272.368 C 1886.102 1275.593, 1881.513 1282.389, 1880.607 1288.055 C 1878.849 1299.051, 1887.391 1310.269, 1899.623 1313.028 C 1907.027 1314.698, 1919.308 1308.295, 1922.033 1301.345 C 1922.777 1299.449, 1923.880 1299.122, 1931.189 1298.630 C 1945.833 1297.644, 2003.876 1296.991, 2004.380 1297.806 C 2004.648 1298.239, 2004.600 1327.774, 2004.273 1363.438 L 2003.680 1428.282 1988.871 1427.592 L 1974.063 1426.903 1968.239 1421.079 C 1963.423 1416.263, 1961.523 1415.063, 1957.263 1414.150 C 1932.075 1408.748, 1917.742 1440.718, 1938.843 1455.236 C 1944.695 1459.262, 1953.558 1460.204, 1960.533 1457.541 C 1965.195 1455.760, 1971.647 1449.257, 1972.627 1445.349 C 1972.932 1444.137, 1973.863 1442.883, 1974.696 1442.563 C 1975.530 1442.243, 1982.464 1442.280, 1990.106 1442.645 L 2004 1443.308 2004 1468.595 C 2004 1487.726, 2003.696 1494.079, 2002.750 1494.691 C 2002.063 1495.136, 1971.125 1495.857, 1934 1496.293 C 1896.875 1496.729, 1845.873 1497.404, 1820.662 1497.793 L 1774.825 1498.500 1772.339 1501.391 C 1770.486 1503.546, 1770.016 1504.945, 1770.493 1506.891 C 1771.956 1512.866, 1766.557 1512.536, 1855.788 1512.106 C 1900.730 1511.890, 1938.847 1511.328, 1940.493 1510.856 C 1942.140 1510.385, 1957.102 1510, 1973.743 1510 L 2004 1510 2004 1517.146 L 2004 1524.293 1882.606 1523.896 C 1764.339 1523.510, 1761.159 1523.549, 1759.106 1525.405 C 1756.482 1527.778, 1756.397 1532.033, 1758.911 1535.139 L 1760.821 1537.500 1827.661 1538.117 C 1864.422 1538.456, 1919.138 1539.091, 1949.250 1539.528 L 2004 1540.321 2004.236 1582.411 C 2004.546 1637.675, 2004.544 1637.945, 2003.567 1649.095 C 2003.105 1654.373, 2003.041 1660.785, 2003.425 1663.345 L 2004.123 1668 2011.645 1668 L 2019.168 1668 2018.979 1647.750 C 2018.875 1636.612, 2018.837 1607.813, 2018.895 1583.750 L 2019 1540 2037.889 1540 C 2054.995 1540, 2057.001 1539.820, 2059.139 1538.089 L 2061.500 1536.178 2061.778 1489.839 L 2062.056 1443.500 2153.278 1443.715 C 2214.854 1443.860, 2246.612 1444.292, 2251 1445.044 C 2255.455 1445.809, 2272.286 1446.001, 2304.500 1445.655 C 2330.350 1445.378, 2352.400 1445.046, 2353.500 1444.917 C 2354.600 1444.789, 2362.813 1445.046, 2371.750 1445.489 L 2388 1446.295 2388 1439.300 L 2388 1432.304 2375.250 1431.592 C 2368.238 1431.200, 2348.036 1430.940, 2330.357 1431.014 C 2312.679 1431.088, 2293.469 1430.830, 2287.669 1430.442 L 2277.124 1429.735 2222.460 1375.618 C 2192.396 1345.853, 2167.131 1321.119, 2166.316 1320.654 C 2165.502 1320.189, 2163.347 1320.087, 2161.529 1320.429 C 2157.677 1321.151, 2155.483 1325.093, 2156.555 1329.364 C 2156.992 1331.104, 2174.541 1349.151, 2206.863 1381.099 L 2256.500 1430.161 2160 1429.454 C 2106.925 1429.065, 2063.162 1428.553, 2062.750 1428.315 C 2062.338 1428.077, 2062 1398.217, 2062 1361.959 L 2062 1296.036 2112.250 1295.594 C 2177.251 1295.023, 2377.104 1292.165, 2384.750 1291.698 L 2388 1291.500 2388.001 1284.500 L 2388.001 1277.500 2319.751 1278.174 C 2250.134 1278.862, 2145.242 1280.460, 2091.750 1281.647 L 2062 1282.308 2062 1201.104 C 2062 1131.792, 2061.786 1119.486, 2060.537 1117.072 C 2058.454 1113.044, 2054.549 1111.869, 2050.695 1114.111 M 1531.440 1127.900 C 1518.895 1131.055, 1510.377 1140.752, 1509.252 1153.156 C 1508.353 1163.077, 1513.149 1172.286, 1522.454 1178.500 L 1526.946 1181.500 1527.446 1321 C 1527.927 1455.363, 1529.360 1667.234, 1529.791 1667.750 C 1529.906 1667.888, 1533.037 1668, 1536.750 1668 L 1543.500 1668 1543.168 1552.250 C 1542.986 1488.588, 1542.986 1434.480, 1543.168 1432.012 L 1543.500 1427.524 1554.477 1440.512 C 1560.515 1447.655, 1565.714 1453.725, 1566.030 1454 C 1566.347 1454.275, 1569.013 1457.425, 1571.954 1461 C 1574.896 1464.575, 1578.096 1468.400, 1579.066 1469.500 C 1580.035 1470.600, 1582.546 1473.470, 1584.645 1475.877 L 1588.462 1480.254 1589.147 1499.377 C 1589.523 1509.895, 1589.870 1534.925, 1589.917 1555 C 1589.964 1575.075, 1590.300 1608.713, 1590.664 1629.750 L 1591.325 1668 1597.544 1668 L 1603.763 1668 1604.370 1659.750 C 1604.704 1655.213, 1604.817 1617.198, 1604.621 1575.274 L 1604.266 1499.047 1609.883 1505.862 C 1612.972 1509.610, 1620.225 1518.219, 1626 1524.993 C 1631.775 1531.767, 1643.183 1545.227, 1651.352 1554.904 C 1670.010 1577.009, 1675.561 1583.432, 1680.156 1588.229 C 1682.166 1590.329, 1686.441 1595.296, 1689.656 1599.267 C 1692.870 1603.238, 1696.313 1607.390, 1697.308 1608.494 C 1698.302 1609.597, 1702.577 1614.705, 1706.808 1619.843 C 1720.236 1636.154, 1741.350 1661.408, 1743.717 1663.990 C 1744.973 1665.359, 1746 1666.822, 1746 1667.240 C 1746 1667.658, 1750.050 1668, 1755 1668 C 1759.950 1668, 1764 1667.743, 1764 1667.429 C 1764 1667.114, 1763.438 1666.274, 1762.750 1665.562 C 1762.063 1664.849, 1758.125 1660.092, 1754 1654.990 C 1746.655 1645.905, 1736.485 1633.472, 1733.148 1629.500 C 1728.853 1624.386, 1709.672 1601.263, 1702.359 1592.384 C 1693.137 1581.187, 1689.041 1576.317, 1683.975 1570.528 C 1680.872 1566.981, 1667.391 1551.016, 1662.846 1545.505 C 1660.944 1543.199, 1639.519 1517.924, 1630.549 1507.406 C 1627.222 1503.505, 1623.600 1499.223, 1622.500 1497.892 C 1621.400 1496.560, 1616.855 1491.202, 1612.400 1485.985 L 1604.301 1476.500 1603.710 1433.240 L 1603.119 1389.980 1606.810 1388.051 C 1619.635 1381.346, 1625.007 1366.258, 1619.031 1353.723 C 1614.556 1344.334, 1601.721 1336.930, 1592.910 1338.653 C 1578.208 1341.528, 1570 1351.061, 1570 1365.261 C 1570 1371.746, 1570.374 1373.216, 1573.255 1378.044 C 1575.688 1382.123, 1577.960 1384.356, 1582.255 1386.890 L 1588 1390.281 1588 1423.717 L 1588 1457.153 1585.250 1453.835 C 1583.737 1452.010, 1581.533 1449.387, 1580.351 1448.008 C 1575.194 1441.988, 1554.368 1417.328, 1553.003 1415.626 C 1552.176 1414.595, 1549.600 1411.670, 1547.278 1409.126 L 1543.057 1404.500 1542.946 1343 C 1542.885 1309.175, 1542.805 1278.800, 1542.769 1275.500 C 1542.733 1272.200, 1542.770 1249.897, 1542.851 1225.937 L 1543 1182.375 1547.750 1180.253 C 1557.956 1175.695, 1563.138 1168.157, 1563.795 1156.913 C 1564.307 1148.145, 1562.560 1142.986, 1556.896 1136.534 C 1551.284 1130.143, 1539.038 1125.989, 1531.440 1127.900 M 1532.313 1143.102 C 1523.110 1145.765, 1521.577 1160.114, 1529.898 1165.713 C 1534.077 1168.526, 1538.813 1168.633, 1543.251 1166.015 C 1546.654 1164.007, 1550 1158.546, 1550 1155 C 1550 1150.905, 1546.667 1146.017, 1542.499 1143.999 C 1537.985 1141.814, 1537.050 1141.732, 1532.313 1143.102 M 1085.150 1145.527 C 1077.733 1151.768, 1081.848 1162.888, 1091.604 1162.967 C 1098.804 1163.025, 1103.623 1156.332, 1100.978 1149.947 C 1098.106 1143.014, 1090.621 1140.924, 1085.150 1145.527 M 2007.500 1160.390 C 2001.822 1162.570, 2000.244 1163.949, 1998.026 1168.667 C 1996.048 1172.876, 1995.936 1173.843, 1997.012 1177.436 C 1997.678 1179.656, 1999.779 1182.942, 2001.682 1184.737 C 2004.808 1187.684, 2005.731 1188, 2011.226 1188 C 2017.033 1188, 2017.484 1187.816, 2021.155 1183.958 C 2024.668 1180.265, 2025 1179.437, 2025 1174.362 C 2025 1167.427, 2022.503 1163.573, 2016.283 1160.907 C 2011.326 1158.782, 2011.641 1158.801, 2007.500 1160.390 M 2262.643 1176.028 C 2255.047 1178.304, 2250.723 1187.961, 2254.058 1195.203 C 2255.941 1199.295, 2262.287 1203, 2267.410 1203 C 2271.432 1203, 2272.495 1202.505, 2276 1199 C 2279.918 1195.082, 2280.534 1193.238, 2280.012 1187 C 2279.668 1182.889, 2276.796 1179.080, 2272.456 1176.979 C 2268.024 1174.833, 2266.971 1174.731, 2262.643 1176.028 M 1662.982 1193.521 C 1662.343 1194.292, 1661.581 1196.705, 1661.289 1198.885 C 1660.843 1202.210, 1661.172 1203.262, 1663.333 1205.424 C 1670.318 1212.409, 1680.832 1204.763, 1676.572 1195.797 C 1675.105 1192.710, 1674.660 1192.488, 1669.575 1192.311 C 1665.945 1192.184, 1663.759 1192.586, 1662.982 1193.521 M 1898.223 1285.557 C 1895.363 1287.560, 1895.131 1293.904, 1897.829 1296.345 C 1900.351 1298.627, 1905.288 1298.445, 1907.512 1295.987 C 1913.244 1289.653, 1905.226 1280.651, 1898.223 1285.557 M 2019.694 1297.639 C 2019.312 1298.021, 2019 1327.508, 2019 1363.167 L 2019 1428 2033.007 1428 L 2047.014 1428 2046.757 1362.750 L 2046.500 1297.500 2033.444 1297.222 C 2026.264 1297.070, 2020.076 1297.257, 2019.694 1297.639 M 1434.708 1341.090 C 1422.096 1347.745, 1424.267 1365.524, 1438.199 1369.680 C 1445.627 1371.896, 1452.228 1368.533, 1456.091 1360.562 C 1458.514 1355.564, 1458.486 1354.013, 1455.875 1348.458 C 1454.411 1345.342, 1452.442 1343.171, 1449.537 1341.469 C 1444.478 1338.504, 1439.833 1338.385, 1434.708 1341.090 M 1589.217 1355.561 C 1586.436 1357.508, 1584 1362.107, 1584 1365.408 C 1584 1368.919, 1590.884 1376, 1594.298 1376 C 1601.308 1376, 1605.920 1371.523, 1605.967 1364.673 C 1605.994 1360.647, 1605.515 1359.361, 1603.077 1356.923 C 1600.741 1354.587, 1599.279 1354, 1595.799 1354 C 1593.405 1354, 1590.442 1354.702, 1589.217 1355.561 M 1256.500 1366 C 1255.400 1366.473, 1250.338 1366.891, 1245.250 1366.930 L 1236 1367 1236.006 1391.750 C 1236.011 1412.844, 1236.207 1416.131, 1237.332 1414 C 1238.058 1412.625, 1240.530 1408.197, 1242.826 1404.160 C 1245.122 1400.124, 1247 1396.672, 1247 1396.490 C 1247 1396.307, 1249.475 1391.872, 1252.500 1386.632 C 1255.525 1381.393, 1258 1376.814, 1258 1376.457 C 1258 1376.101, 1258.889 1374.561, 1259.975 1373.035 C 1261.061 1371.509, 1262.400 1369.077, 1262.950 1367.631 C 1263.881 1365.182, 1263.762 1365.005, 1261.225 1365.070 C 1259.726 1365.109, 1257.600 1365.527, 1256.500 1366 M 1399.861 1417.910 C 1397.602 1419.739, 1397.500 1420.373, 1397.500 1432.660 C 1397.500 1439.722, 1398.108 1460.209, 1398.850 1478.187 L 1400.201 1510.874 1396.093 1516.687 C 1393.834 1519.884, 1391.344 1523.400, 1390.560 1524.500 C 1389.777 1525.600, 1383.440 1534.600, 1376.479 1544.500 C 1369.518 1554.400, 1363.171 1563.175, 1362.375 1564 C 1361.111 1565.310, 1361.027 1562.010, 1361.714 1538 C 1362.146 1522.875, 1362.500 1499.184, 1362.500 1485.354 C 1362.500 1462.030, 1362.362 1460.056, 1360.595 1458.104 C 1358.221 1455.482, 1353.966 1455.398, 1350.861 1457.911 C 1348.502 1459.819, 1348.499 1459.854, 1347.736 1491.161 C 1347.316 1508.397, 1346.793 1552.942, 1346.575 1590.149 C 1346.305 1636.313, 1345.833 1658.444, 1345.089 1659.833 C 1344.490 1660.952, 1344 1663.248, 1344 1664.934 L 1344 1668 1351.887 1668 L 1359.773 1668 1360.514 1641.327 C 1360.922 1626.657, 1360.972 1611.607, 1360.626 1607.884 C 1360.272 1604.073, 1360.480 1598.860, 1361.103 1595.956 C 1362.309 1590.334, 1362.262 1590.405, 1397.473 1540.942 C 1406.858 1527.758, 1413.245 1517.803, 1413.916 1515.312 C 1414.986 1511.340, 1414.838 1504.067, 1412.372 1439.041 C 1411.711 1421.610, 1411.544 1420.453, 1409.381 1418.291 C 1406.590 1415.499, 1403.016 1415.357, 1399.861 1417.910 M 1946.747 1429.984 C 1942.119 1433.625, 1942.379 1439.187, 1947.367 1443.228 C 1948.540 1444.178, 1950.400 1444.963, 1951.500 1444.973 C 1954.565 1444.999, 1958.925 1440.872, 1959.615 1437.290 C 1960.133 1434.604, 1959.738 1433.584, 1957.194 1431.040 C 1953.657 1427.503, 1950.329 1427.166, 1946.747 1429.984 M 2019 1483.500 L 2019 1524 2033 1524 L 2047 1524 2047 1483.500 L 2047 1443 2033 1443 L 2019 1443 2019 1483.500 M 2099.524 1455.063 C 2087.642 1460.990, 2082.745 1474.870, 2088.564 1486.125 C 2092.151 1493.060, 2101.699 1499, 2109.260 1499 C 2116.773 1499, 2126.678 1492.669, 2129.629 1485.979 L 2131.385 1482 2154.942 1481.957 C 2167.899 1481.934, 2187.275 1481.506, 2198 1481.006 C 2208.725 1480.507, 2236.625 1479.821, 2260 1479.483 C 2283.375 1479.145, 2304.525 1478.440, 2307 1477.917 C 2309.475 1477.393, 2328.712 1476.860, 2349.750 1476.733 L 2388 1476.500 2388 1468.598 L 2388 1460.696 2365.250 1461.402 C 2352.738 1461.791, 2329.450 1462.546, 2313.500 1463.081 C 2297.550 1463.616, 2265.600 1464.470, 2242.500 1464.979 C 2219.400 1465.487, 2184.983 1466.417, 2166.017 1467.044 L 2131.534 1468.184 2130.017 1465.866 C 2122.394 1454.216, 2110.015 1449.830, 2099.524 1455.063 M 2104.250 1469.491 C 2102.452 1470.787, 2102 1472.082, 2102 1475.934 C 2102 1481.740, 2103.641 1483.455, 2109.201 1483.455 C 2112.223 1483.455, 2113.595 1482.874, 2115.052 1480.977 C 2117.285 1478.071, 2117.515 1473.264, 2115.546 1470.665 C 2113.607 1468.107, 2107.105 1467.431, 2104.250 1469.491 M 2189.184 1494.138 C 2186.369 1495.531, 2183.675 1498.047, 2181.434 1501.374 C 2178.502 1505.727, 2178 1507.322, 2178 1512.276 C 2178 1516.101, 2178.680 1519.413, 2179.994 1521.989 C 2182.111 1526.138, 2186.455 1531, 2188.045 1531 C 2188.570 1531, 2189.900 1531.900, 2191 1533 C 2192.927 1534.927, 2193 1536.333, 2193 1571.500 L 2193 1608 2166.635 1608 C 2141.891 1608, 2140.115 1608.122, 2137.758 1609.976 C 2134.546 1612.502, 2133.935 1614.941, 2135.552 1618.785 C 2136.658 1621.416, 2137.531 1621.957, 2141.671 1622.579 C 2144.327 1622.977, 2156.963 1623.009, 2169.750 1622.650 L 2193 1621.996 2193.038 1624.748 C 2193.058 1626.261, 2193.042 1636.612, 2193.001 1647.750 L 2192.928 1668 2201.091 1668 L 2209.254 1668 2208.877 1645.250 L 2208.500 1622.500 2262 1621.889 C 2291.425 1621.553, 2331.813 1621.215, 2351.750 1621.139 L 2388 1621 2388 1613.652 L 2388 1606.305 2376.750 1605.691 C 2370.563 1605.353, 2353.357 1605.479, 2338.516 1605.971 C 2323.674 1606.462, 2311.332 1606.666, 2311.089 1606.422 C 2310.846 1606.179, 2314.214 1602.737, 2318.573 1598.773 C 2322.933 1594.809, 2331 1587.016, 2336.500 1581.455 C 2342 1575.894, 2351 1567.391, 2356.500 1562.560 C 2362 1557.728, 2369.650 1550.975, 2373.500 1547.553 C 2377.350 1544.131, 2382.188 1539.860, 2384.250 1538.062 L 2388 1534.793 2388 1525.813 C 2388 1520.874, 2387.597 1516.983, 2387.105 1517.167 C 2385.924 1517.607, 2359.788 1540.376, 2354.573 1545.508 C 2352.333 1547.712, 2346.241 1553.337, 2341.035 1558.008 C 2335.830 1562.679, 2328.170 1569.650, 2324.014 1573.500 C 2319.858 1577.350, 2311.112 1585.450, 2304.580 1591.500 C 2285.696 1608.988, 2292.981 1607, 2247.781 1607 L 2208.950 1607 2207.975 1604.435 C 2207.405 1602.935, 2207.025 1587.463, 2207.061 1567.185 L 2207.122 1532.500 2211.238 1529.500 C 2216.388 1525.746, 2218.612 1521.937, 2219.508 1515.333 C 2221.740 1498.896, 2204.258 1486.677, 2189.184 1494.138 M 2194.035 1508.934 C 2191.450 1513.764, 2194.123 1519, 2199.174 1519 C 2204.044 1519, 2206.710 1512.837, 2203.608 1508.750 C 2201.720 1506.263, 2195.400 1506.385, 2194.035 1508.934 M 1969.327 1566.468 C 1968.131 1567.314, 1966.645 1569.545, 1966.025 1571.425 C 1964.748 1575.295, 1963.825 1635.859, 1964.741 1655.750 L 1965.305 1668 1972.402 1667.998 L 1979.500 1667.996 1979.500 1618.537 C 1979.500 1564.821, 1979.716 1566.904, 1974 1565.531 C 1972.483 1565.167, 1970.646 1565.535, 1969.327 1566.468" stroke="none" fill="#fc2c04" fill-rule="evenodd"/><path d="" stroke="none" fill="#fc2404" fill-rule="evenodd"/></svg>