<?xml version="1.0" encoding="UTF-8" standalone="no"?>
<!DOCTYPE svg PUBLIC "-//W3C//DTD SVG 1.1//EN" "http://www.w3.org/Graphics/SVG/1.1/DTD/svg11.dtd">
<svg width="100%" height="100%" viewBox="0 0 477 500" version="1.1" xmlns="http://www.w3.org/2000/svg" xmlns:xlink="http://www.w3.org/1999/xlink" xml:space="preserve" xmlns:serif="http://www.serif.com/" style="fill-rule:evenodd;clip-rule:evenodd;stroke-linejoin:round;stroke-miterlimit:2;">
    <g id="Image">
        <path id="path24" d="M122.377,132.197C125.384,126.458 136.423,110.356 134.161,104.197C130.864,95.219 116.25,86.498 109.402,80.072C86.489,58.572 63.144,37.52 40.378,15.873C31.357,7.296 19.835,-4.554 5.706,1.8C0.15,4.299 0.385,13.168 0.377,18.197L0.377,125.197C0.377,135.333 -1.249,147.483 2.255,157.197C8.012,173.157 24.451,189.552 34.492,203.197C42.117,213.558 52.189,236.118 66.377,237.636C76.811,238.752 86.172,227.106 82.649,217.197C80.336,210.69 74.346,204.669 70.25,199.197C58.847,183.962 41.167,165.919 34.231,148.197C29.153,135.222 33.377,113.126 33.377,99.197L33.377,68.197C33.382,64.975 32.711,59.252 36.59,57.859C42.353,55.788 55.856,72.218 59.75,76.042C73.498,89.543 88.143,101.971 102.338,115.058C108.442,120.686 114.402,129.317 122.377,132.197M347.377,132.197C358.498,128.894 363.134,116.299 371.377,130.197C365.321,131.942 353.307,137.314 351.904,144.237C350.815,149.609 355.547,155.499 357.456,160.247C363.365,174.936 371.433,189.166 376.377,204.197C386.193,201.384 391.602,185.138 394.377,176.197L396.377,176.197L401.485,188.197L389.377,215.197C383.357,219.191 386.266,231.807 393.485,233.049C408.663,235.66 420.008,227.218 432.377,219.797C436.213,217.496 442.566,215.375 445.288,211.779C450.452,204.957 451.042,192.969 453.612,184.912C457.749,171.936 462.679,158.643 468.238,146.197C471.542,138.799 476.896,131.64 477.11,123.197C477.346,113.923 468.622,106.849 462.376,101.276C459.636,98.832 455.628,95.158 451.717,97.394C446.971,100.108 446.299,108.529 444.566,113.197C438.915,128.418 434.963,143.719 427.377,158.197C410.108,139.67 397.659,111.994 386.65,89.197C383.014,81.667 387.77,68.082 380.268,63.055C374.433,59.145 351.195,58.711 347.98,66.329C345.34,72.587 348.627,80.672 345.389,87.027C341.656,94.354 334.416,96.84 334.561,106.197C334.696,114.936 342.487,125.369 347.377,132.197M392.377,67.197C392.377,87.512 403.835,106.017 414.315,123.197C417.818,128.939 420.441,137.077 427.377,139.197L426.377,136.197C431.25,132.797 432.167,122.748 433.801,117.197C436.051,109.558 442.225,101.547 439.943,93.197C438.538,88.056 433.394,85.256 429.377,82.313C418.389,74.263 406.113,68.319 392.377,67.197M40.377,74.197L40.377,121.197C40.377,128.264 38.827,137.507 41.371,144.197C46.102,156.638 59.551,169.119 67.222,180.197C73.274,188.937 82.904,208.425 94.377,209.197C97.51,194.057 102.297,179.36 108.376,165.197C110.81,159.528 117.363,151.501 117.017,145.236C116.648,138.578 103.823,130.607 99.376,126.193C89.545,116.435 78.699,107.888 68.715,98.298C60.127,90.05 51.228,79.353 40.377,74.197M116.377,164.197C128.994,164.197 148.637,160.472 160.377,165.206C167.043,167.894 172.916,174.56 178.377,179.117C193.359,191.617 209.084,209.237 226.377,218.197L226.377,108.197L161.377,108.197L137.079,109.225L130.377,125.197L116.377,164.197M240.377,108.197L240.377,218.197L291.377,179.547L310.377,165.786L351.377,165.197L336.685,125.197L329.728,109.225L305.377,108.197L240.377,108.197M90.377,232.197L162.377,232.197C173.665,232.197 184.138,229.95 191.152,240.621C195.499,247.235 193.377,258.614 193.377,266.197C193.377,300.09 166.681,329.45 157.331,361.158C152.839,376.394 163.754,399.184 169.047,413.367C172.163,421.715 173.454,444.593 182.485,448.455C193.621,453.216 214.265,449.197 226.377,449.197L226.377,422.197C218.209,422.197 207.727,424.009 200.377,419.83C184.471,410.784 182.755,384.744 197.378,373.615C205.856,367.163 216.382,368.197 226.377,368.197L226.377,271.197C226.377,261.029 230.182,241.286 225.349,232.287C221.137,224.443 209.163,217.778 202.377,212.117L172.377,187.117C167.579,183.113 162.322,177.136 156.377,174.935C149.833,172.513 140.291,174.197 133.377,174.197C128.235,174.197 117.343,172.135 113.026,175.225C109.116,178.022 107.665,186.852 106.058,191.197C100.987,204.913 95.356,218.472 90.377,232.197M240.377,368.197C250.251,368.197 260.907,366.81 269.362,372.986C283.823,383.55 282.428,409.861 267.377,419.202C259.701,423.967 249.014,422.197 240.377,422.197L240.377,449.197C254.305,449.197 274.101,452.817 287.333,448.393C292.367,446.71 292.869,441.734 294.004,437.197C296.344,427.842 298.887,418.447 301.582,409.197C305.468,395.859 312.159,380.92 310.028,366.773C306.916,346.109 290.77,324.703 283.188,305.197C277.137,289.629 273.377,279.051 273.377,262.197C273.377,256.536 272.284,249.571 275.605,244.621C283.762,232.465 295.427,233.197 308.377,233.197L378.377,233.197C374.988,218.966 366.199,206.045 361.377,192.197C359.78,187.611 358.049,178.098 353.878,175.225C349.582,172.266 339.426,174.197 334.377,174.197C328.481,174.197 321.023,172.999 315.377,174.9C309.096,177.014 303.539,182.853 298.377,186.847C287.35,195.379 276.421,204.037 265.377,212.546C258.341,217.967 245.667,224.36 241.405,232.287C236.57,241.279 240.377,261.034 240.377,271.197L240.377,368.197M87.377,239.197C87.377,255.236 84.432,274.518 87.766,290.197C91.811,309.216 104.905,329.595 113.157,347.197C116.888,355.154 120.451,363.188 124.071,371.197C125.407,374.151 126.578,378.926 130.482,379.234C142.043,380.145 148.163,368.881 151.953,360.197C162.433,336.179 176.932,312.997 185.377,288.197C173.181,284.592 157.088,287.197 144.377,287.197C138.783,287.197 131.182,288.561 126.602,284.624C117.533,276.829 122.377,250.174 122.377,239.197L87.377,239.197M129.377,240.197C129.377,249.393 126.19,266.059 131.467,273.987C135.083,279.421 141.623,279.197 147.377,279.197L183.377,279.197L183.377,240.197L129.377,240.197M344.377,242.197C344.377,253.918 348.766,276.462 340.728,285.857C336.191,291.159 329.682,290.197 323.377,290.197L282.377,290.197C282.882,299.935 289.818,310.545 294.13,319.197C302.177,335.343 309.213,351.991 317.132,368.197C319.998,374.062 329.747,385.9 337.983,381.774C341.072,380.227 342.28,375.106 343.608,372.197C347.403,363.878 351.296,355.578 354.953,347.197C362.43,330.058 375.094,311.505 378.987,293.197C382.321,277.518 379.377,258.236 379.377,242.197L344.377,242.197M283.377,243.197L283.377,282.197L319.377,282.197C325.131,282.197 331.671,282.421 335.287,276.987C340.564,269.059 337.377,252.393 337.377,243.197L283.377,243.197M203.378,376.939C190.662,381.822 191.132,406.043 201.42,412.933C206.079,416.054 212.041,415.197 217.377,415.197C230.056,415.197 250.779,419.142 262.373,413.78C274.195,408.312 275.538,385.071 264.362,378.206C259.693,375.339 253.613,376.197 248.377,376.197C235.551,376.197 215.359,372.338 203.378,376.939M120.377,497.197L199.377,497.197L199.377,459.197C193.706,459.197 185.564,460.669 180.392,458.018C166.121,450.703 161.407,426.321 157.791,412.197C156.306,406.399 153.71,390.755 148.678,387.24C143.884,383.892 126.566,391.798 125.51,397.251C123.247,408.942 124.098,421.36 123.287,433.197C121.826,454.533 120.377,475.769 120.377,497.197M269.377,460.197L269.377,497.197L328.377,497.197C332.749,497.197 345.23,499.342 348.198,495.594C353.035,489.486 347.957,473.245 347.302,466.197C345.605,447.941 344.79,429.059 341.636,411.107C340.723,405.91 343.474,397.187 340.198,392.761C337.958,389.735 327.09,387.069 323.396,386.773C315.176,386.117 312.542,409.554 310.367,415.773C305.654,429.245 304.141,452.546 289.373,458.519C283.142,461.039 275.956,460.197 269.377,460.197M208.377,458.197L208.377,501.197L259.377,501.197L259.377,458.197L208.377,458.197Z" style="fill:white;fill-rule:nonzero;"/>
    </g>
</svg>
