<svg id="Warstwa_1" data-name="Warstwa 1" xmlns="http://www.w3.org/2000/svg" viewBox="0 0 639.9 412.04"><defs><style>.cls-1{fill:#ff451a;}</style></defs><title>menu</title><path class="cls-1" d="M416.76,206.23q-134,0-267.89.08c-23.89,0-48.57-1.33-50-32.07-1.44-31.27,21.24-40,48.06-40.07C323,134,457.38,134,694.69,134c23.75,0,44.84,7,44,34.29-.82,26.57-18.59,38.4-46,38.19C600.68,205.77,508.72,206.22,416.76,206.23Z" transform="translate(-98.81 -134.02)"/><path class="cls-1" d="M423.37,305.76c89.24,0,178.49.44,267.72-.3,25.94-.22,47.47,6.17,47.56,35,.09,27.84-20.6,37.58-46.58,37.57q-273.72-.1-547.42-.17c-22.31,0-45.73-4.15-45.65-32.74.09-30,20.63-39.71,48.66-39.55C239.56,306.09,331.47,305.77,423.37,305.76Z" transform="translate(-98.81 -134.02)"/><path class="cls-1" d="M423.79,473.76c89.24,0,178.48.44,267.71-.29,26.06-.21,47.28,6.52,47.1,35.4-.18,28-21.12,37.2-47,37.19q-273.7-.12-547.42-.2c-22.38,0-45.62-4.51-45.24-33.13.4-30.08,21.19-39.33,49.09-39.17C240,474.1,331.88,473.77,423.79,473.76Z" transform="translate(-98.81 -134.02)"/></svg>